<?xml version="1.0" ?><svg style="enable-background:new 0 0 48 48;" version="1.1" viewBox="0 0 48 48" xml:space="preserve" xmlns="http://www.w3.org/2000/svg" xmlns:xlink="http://www.w3.org/1999/xlink"><g id="Icons"><g id="Icons_7_"><g><path d="M34.95,10.525h-21.9c-1.4,0-2.53,1.13-2.53,2.5299V34.955c0,1.39,1.13,2.52,2.53,2.52h21.9     c1.3999,0,2.53-1.13,2.53-2.52V13.0549C37.48,11.655,36.35,10.525,34.95,10.525z M22.67,28.885H29c1.17,0,2.12,0.96,2.12,2.13     c0,1.1799-0.95,2.12-2.12,2.12h-6.33c-3.19,0-5.79-2.59-5.79-5.79V16.9949c0-1.18,0.95-2.1299,2.12-2.1299     c1.18,0,2.13,0.9499,2.13,2.1299v2.5201H29c1.17,0,2.12,0.95,2.12,2.12c0,1.18-0.95,2.13-2.12,2.13h-7.87v3.58     C21.13,28.195,21.82,28.885,22.67,28.885z" style="fill:#4AA0EC;"/></g></g></g></svg>